<?xml version="1.0" standalone="no"?>
<!DOCTYPE svg PUBLIC "-//W3C//DTD SVG 20010904//EN"
        "http://www.w3.org/TR/2001/REC-SVG-20010904/DTD/svg10.dtd">
<svg version="1.0" xmlns="http://www.w3.org/2000/svg"
     width="900.000000pt" height="933.000000pt" viewBox="0 0 900.000000 933.000000"
     preserveAspectRatio="xMidYMid meet">

    <g transform="translate(0.000000,933.000000) scale(0.100000,-0.100000)"
       fill="#000000" stroke="none">
        <path d="M5127 9081 c-4 -18 -7 -63 -7 -100 0 -36 -7 -115 -16 -176 -66 -454
-174 -569 -605 -639 -52 -9 -124 -16 -160 -17 -77 0 -151 -13 -129 -22 26 -11
190 -37 234 -37 89 0 286 -50 383 -97 70 -34 154 -125 192 -206 49 -105 100
-366 102 -522 1 -38 5 -83 9 -100 l7 -30 6 35 c3 19 13 100 22 180 50 457 139
608 406 689 88 26 167 41 279 52 96 9 193 25 220 36 20 8 -59 21 -134 22 -69
1 -228 25 -302 47 -28 8 -58 14 -68 14 -25 0 -134 56 -184 95 -49 38 -69 62
-106 129 -38 69 -96 270 -96 333 1 36 -29 278 -39 318 l-7 30 -7 -34z"/>
        <path d="M6807 8065 c-4 -22 -7 -76 -7 -120 0 -44 -7 -129 -15 -190 -8 -60
-15 -130 -15 -155 0 -25 -7 -80 -15 -123 -8 -43 -15 -97 -15 -119 0 -22 -7
-67 -15 -101 -55 -231 -58 -241 -98 -342 -72 -183 -141 -273 -297 -386 -49
-35 -225 -119 -251 -119 -11 0 -35 -6 -52 -14 -39 -16 -117 -36 -177 -46 -251
-39 -413 -60 -460 -60 -25 0 -99 -7 -165 -15 -65 -8 -149 -15 -185 -16 -36 -1
-76 -4 -90 -8 -24 -7 -24 -7 9 -14 18 -4 63 -7 100 -7 37 0 105 -5 151 -11 46
-5 136 -14 200 -19 187 -15 386 -45 496 -76 28 -8 59 -14 68 -14 27 0 155 -41
162 -51 3 -5 13 -9 22 -10 9 0 36 -10 59 -22 23 -12 62 -33 88 -47 58 -30 162
-124 208 -188 106 -145 194 -406 227 -672 4 -30 12 -93 18 -140 23 -171 42
-377 43 -455 1 -44 4 -93 8 -110 l7 -30 7 30 c3 17 13 107 22 200 23 249 44
429 60 525 8 47 17 99 19 115 6 38 29 133 50 205 51 183 123 309 240 423 74
72 74 72 188 128 127 64 263 108 398 129 25 4 72 12 105 18 145 27 448 59 635
68 52 3 111 7 130 11 30 5 32 7 15 13 -11 5 -49 9 -85 10 -36 0 -119 7 -185
15 -66 8 -140 15 -165 15 -75 0 -421 52 -506 76 -28 8 -59 14 -69 14 -9 0 -40
7 -69 16 -352 113 -521 280 -624 614 -55 178 -74 270 -92 455 -6 55 -13 107
-16 115 -3 8 -9 73 -14 145 -11 155 -30 320 -39 355 -7 22 -8 21 -14 -15z"/>
        <path d="M3927 7565 c-4 -22 -7 -76 -7 -120 0 -44 -7 -138 -15 -210 -8 -71
-15 -161 -15 -200 0 -38 -7 -115 -15 -170 -8 -55 -15 -127 -15 -161 0 -33 -5
-87 -11 -119 -6 -32 -14 -101 -19 -154 -9 -110 -25 -228 -45 -351 -8 -47 -16
-101 -19 -120 -4 -41 -23 -135 -38 -200 -6 -25 -14 -65 -19 -90 -8 -49 -24
-114 -42 -170 -5 -19 -14 -51 -18 -70 -7 -33 -13 -54 -45 -142 -27 -75 -47
-124 -74 -183 -15 -33 -31 -67 -34 -75 -11 -28 -66 -120 -112 -191 -48 -72
-229 -264 -299 -316 -48 -36 -224 -141 -278 -165 -59 -27 -98 -44 -147 -63
-25 -9 -60 -23 -78 -31 -18 -8 -39 -14 -47 -14 -8 0 -29 -6 -47 -14 -61 -26
-315 -87 -498 -120 -311 -55 -810 -114 -1160 -137 -80 -5 -181 -14 -225 -19
-44 -6 -118 -11 -165 -11 -47 -1 -98 -5 -115 -9 l-30 -7 35 -6 c62 -11 328
-37 383 -37 28 0 122 -7 207 -15 85 -9 225 -22 310 -31 85 -8 201 -21 256 -29
56 -8 116 -15 134 -15 30 0 80 -8 305 -46 141 -23 318 -61 425 -90 147 -40
168 -47 320 -104 237 -90 468 -240 586 -380 25 -30 58 -68 72 -84 33 -38 92
-127 126 -191 15 -27 31 -57 36 -65 33 -53 112 -254 145 -365 51 -174 64 -223
74 -285 5 -25 13 -65 19 -90 14 -60 31 -152 42 -225 9 -65 24 -163 41 -277 6
-40 13 -95 15 -123 3 -27 11 -106 19 -175 20 -177 36 -345 45 -495 5 -71 13
-170 19 -220 6 -49 11 -133 12 -185 1 -52 4 -106 9 -120 7 -24 7 -23 13 10 3
19 13 125 21 235 9 110 21 254 27 320 6 66 15 174 19 240 5 66 14 144 20 174
5 29 10 77 10 106 0 29 5 77 10 106 6 30 15 92 19 139 15 148 74 487 103 595
6 22 15 58 19 80 10 53 29 122 44 165 7 19 20 60 29 90 47 149 134 332 223
468 98 149 286 325 453 424 65 38 250 128 264 128 5 0 22 6 39 14 53 23 229
79 307 96 30 7 75 19 99 26 25 8 54 14 65 14 11 0 47 6 80 14 34 7 104 21 156
30 52 8 136 22 186 31 51 8 106 15 124 15 18 0 78 7 134 15 55 8 171 21 256
29 85 9 223 23 306 31 83 8 175 15 205 15 60 0 360 28 399 37 25 6 25 6 -5 13
-16 4 -71 8 -122 9 -50 0 -125 6 -165 11 -40 6 -140 14 -223 20 -413 26 -991
100 -1310 166 -150 32 -361 90 -447 123 -12 5 -43 17 -68 26 -138 53 -256 114
-370 190 -67 44 -235 201 -301 281 -106 126 -227 370 -297 594 -63 201 -77
262 -136 575 -32 172 -91 642 -106 850 -5 61 -13 164 -19 230 -6 66 -18 210
-27 320 -8 110 -19 216 -23 235 l-7 35 -7 -40z"/>
    </g>
</svg>

