<svg width="477" height="169" viewBox="0 0 477 169" fill="none" xmlns="http://www.w3.org/2000/svg">
<mask id="path-1-outside-1_226_190" maskUnits="userSpaceOnUse" x="31" y="31" width="106" height="107" fill="black">
<rect fill="white" x="31" y="31" width="106" height="107"/>
<path d="M82.1429 118.579C82.1429 118.579 121.184 118.231 124.857 117.658C128.53 117.084 106.094 74.7052 106.094 74.7052C104.749 71.5952 104.603 68.1037 105.683 64.8938C105.683 64.8938 119.328 33.9551 117.471 32.113C115.614 30.2709 77.1116 51.568 77.1116 51.568C71.9617 54.487 67.8856 58.9604 65.4769 64.3369C65.4769 64.3369 37.9456 116.98 41.2867 117.658C44.6279 118.336 82.1429 118.579 82.1429 118.579Z"/>
<path fill-rule="evenodd" clip-rule="evenodd" d="M91.1204 68.7509C91.0715 68.3857 90.7565 67 90.3839 67C90.0112 67 89.6963 68.3857 89.6475 68.7509L89.6466 68.7568L89.6432 68.7811C89.64 68.8032 89.6349 68.8372 89.6278 68.8816C89.6138 68.9704 89.592 69.1007 89.5614 69.2621C89.4999 69.5859 89.4042 70.0306 89.2672 70.5147C88.9819 71.5228 88.5578 72.5513 88.0015 73.1012C87.4452 73.6511 86.4049 74.0704 85.3851 74.3524C84.8954 74.4879 84.4456 74.5825 84.1181 74.6432C83.9548 74.6735 83.823 74.6951 83.7331 74.7089C83.6882 74.7159 83.6539 74.7209 83.6315 74.7241L83.6069 74.7275L83.6016 74.7282C83.2322 74.7766 82.1429 75.088 82.1429 75.4564C82.1429 75.8248 83.2315 76.1362 83.6009 76.1844L83.6069 76.1852L83.6315 76.1886C83.6539 76.1918 83.6882 76.1968 83.7331 76.2038C83.823 76.2177 83.9548 76.2393 84.1181 76.2695C84.4456 76.3303 84.8954 76.4249 85.3851 76.5604C86.4049 76.8424 87.4452 77.2617 88.0015 77.8116C88.5578 78.3615 88.9819 79.39 89.2672 80.3981C89.4042 80.8822 89.4999 81.3269 89.5614 81.6506C89.592 81.812 89.6138 81.9424 89.6278 82.0312C89.6349 82.0755 89.64 82.1095 89.6432 82.1317L89.6466 82.156L89.6474 82.1612C89.6962 82.5264 90.0112 83.5789 90.3839 83.5789C90.7566 83.5789 91.0716 82.5271 91.1204 82.1619C91.1237 82.1397 91.1329 82.0755 91.14 82.0312C91.154 81.9424 91.1759 81.812 91.2065 81.6506C91.2679 81.3269 91.3636 80.8822 91.5007 80.3981C91.7859 79.39 92.2101 78.3615 92.7663 77.8116C93.3226 77.2617 94.363 76.8424 95.3828 76.5604C95.8725 76.4249 96.3223 76.3303 96.6498 76.2695C96.8131 76.2393 96.9449 76.2177 97.0347 76.2038C97.0796 76.1968 97.1139 76.1918 97.1364 76.1886L97.161 76.1852L97.1663 76.1845C97.5357 76.1363 98.8571 75.8248 98.8571 75.4564C98.8571 75.0879 97.5364 74.7766 97.1669 74.7283L97.161 74.7275L97.1364 74.7241C97.1139 74.7209 97.0796 74.7159 97.0347 74.7089C96.9449 74.6951 96.8131 74.6735 96.6498 74.6432C96.3223 74.5825 95.8725 74.4879 95.3828 74.3524C94.363 74.0704 93.3226 73.6511 92.7663 73.1012C92.2101 72.5513 91.7859 71.5228 91.5007 70.5147C91.3636 70.0306 91.2679 69.5859 91.2065 69.2621C91.1759 69.1007 91.154 68.9704 91.14 68.8816C91.1329 68.8372 91.1279 68.8032 91.1246 68.7811L91.1212 68.7568L91.1204 68.7509Z"/>
<path d="M32 129.632C32 126.158 32 124.421 33.0879 123.342C34.1758 122.263 35.9267 122.263 39.4286 122.263H128.571C132.073 122.263 133.824 122.263 134.912 123.342C136 124.421 136 126.158 136 129.632C136 133.105 136 134.842 134.912 135.921C133.824 137 132.073 137 128.571 137H39.4286C35.9267 137 34.1758 137 33.0879 135.921C32 134.842 32 133.105 32 129.632Z"/>
<path fill-rule="evenodd" clip-rule="evenodd" d="M85.2408 94.6437C85.143 93.8727 84.5131 90.9474 83.7679 90.9474C83.0225 90.9474 82.3925 93.8726 82.2949 94.6437L82.2933 94.6561L82.2864 94.7074C82.2799 94.7542 82.2698 94.8259 82.2557 94.9195C82.2276 95.107 82.1839 95.3821 82.1227 95.723C81.9999 96.4065 81.8085 97.3452 81.5344 98.3672C80.9639 100.496 80.1155 102.667 79.003 103.828C77.8905 104.989 75.8098 105.874 73.7702 106.469C72.7908 106.755 71.8912 106.955 71.2362 107.083C70.9095 107.147 70.6459 107.192 70.4662 107.222C70.3765 107.237 70.3078 107.247 70.2629 107.254L70.2137 107.261L70.2032 107.263C69.4644 107.365 67.2857 108.022 67.2857 108.8C67.2857 109.578 69.463 110.235 70.2019 110.337L70.2137 110.338L70.2629 110.346C70.3078 110.352 70.3765 110.363 70.4662 110.378C70.6459 110.407 70.9095 110.453 71.2362 110.516C71.8912 110.645 72.7908 110.844 73.7702 111.13C75.8098 111.726 77.8905 112.611 79.003 113.772C80.1155 114.933 80.9639 117.104 81.5344 119.232C81.8085 120.254 81.9999 121.193 82.1227 121.876C82.1839 122.217 82.2276 122.492 82.2557 122.68C82.2698 122.774 82.2799 122.845 82.2864 122.892L82.2933 122.943L82.2948 122.954C82.3924 123.725 83.0225 125.947 83.7679 125.947C84.5132 125.947 85.1432 123.727 85.2408 122.956C85.2473 122.909 85.2659 122.774 85.28 122.68C85.3081 122.492 85.3518 122.217 85.413 121.876C85.5359 121.193 85.7272 120.254 86.0013 119.232C86.5718 117.104 87.4202 114.933 88.5327 113.772C89.6452 112.611 91.7259 111.726 93.7655 111.13C94.7449 110.844 95.6445 110.645 96.2996 110.516C96.6261 110.453 96.8898 110.407 97.0695 110.378C97.1592 110.363 97.2278 110.352 97.2729 110.346L97.322 110.338L97.3326 110.337C98.0714 110.235 100.714 109.578 100.714 108.8C100.714 108.022 98.0728 107.365 97.3339 107.263L97.322 107.261L97.2729 107.254C97.2278 107.247 97.1592 107.237 97.0695 107.222C96.8898 107.192 96.6261 107.147 96.2996 107.083C95.6445 106.955 94.7449 106.755 93.7655 106.469C91.7259 105.874 89.6452 104.989 88.5327 103.828C87.4202 102.667 86.5718 100.496 86.0013 98.3672C85.7272 97.3452 85.5359 96.4065 85.413 95.723C85.3518 95.3821 85.3081 95.107 85.28 94.9195C85.2659 94.8259 85.2558 94.7542 85.2493 94.7074L85.2424 94.6561L85.2408 94.6437Z"/>
</mask>
<path d="M82.1429 118.579C82.1429 118.579 121.184 118.231 124.857 117.658C128.53 117.084 106.094 74.7052 106.094 74.7052C104.749 71.5952 104.603 68.1037 105.683 64.8938C105.683 64.8938 119.328 33.9551 117.471 32.113C115.614 30.2709 77.1116 51.568 77.1116 51.568C71.9617 54.487 67.8856 58.9604 65.4769 64.3369C65.4769 64.3369 37.9456 116.98 41.2867 117.658C44.6279 118.336 82.1429 118.579 82.1429 118.579Z" fill="#310872"/>
<path fill-rule="evenodd" clip-rule="evenodd" d="M91.1204 68.7509C91.0715 68.3857 90.7565 67 90.3839 67C90.0112 67 89.6963 68.3857 89.6475 68.7509L89.6466 68.7568L89.6432 68.7811C89.64 68.8032 89.6349 68.8372 89.6278 68.8816C89.6138 68.9704 89.592 69.1007 89.5614 69.2621C89.4999 69.5859 89.4042 70.0306 89.2672 70.5147C88.9819 71.5228 88.5578 72.5513 88.0015 73.1012C87.4452 73.6511 86.4049 74.0704 85.3851 74.3524C84.8954 74.4879 84.4456 74.5825 84.1181 74.6432C83.9548 74.6735 83.823 74.6951 83.7331 74.7089C83.6882 74.7159 83.6539 74.7209 83.6315 74.7241L83.6069 74.7275L83.6016 74.7282C83.2322 74.7766 82.1429 75.088 82.1429 75.4564C82.1429 75.8248 83.2315 76.1362 83.6009 76.1844L83.6069 76.1852L83.6315 76.1886C83.6539 76.1918 83.6882 76.1968 83.7331 76.2038C83.823 76.2177 83.9548 76.2393 84.1181 76.2695C84.4456 76.3303 84.8954 76.4249 85.3851 76.5604C86.4049 76.8424 87.4452 77.2617 88.0015 77.8116C88.5578 78.3615 88.9819 79.39 89.2672 80.3981C89.4042 80.8822 89.4999 81.3269 89.5614 81.6506C89.592 81.812 89.6138 81.9424 89.6278 82.0312C89.6349 82.0755 89.64 82.1095 89.6432 82.1317L89.6466 82.156L89.6474 82.1612C89.6962 82.5264 90.0112 83.5789 90.3839 83.5789C90.7566 83.5789 91.0716 82.5271 91.1204 82.1619C91.1237 82.1397 91.1329 82.0755 91.14 82.0312C91.154 81.9424 91.1759 81.812 91.2065 81.6506C91.2679 81.3269 91.3636 80.8822 91.5007 80.3981C91.7859 79.39 92.2101 78.3615 92.7663 77.8116C93.3226 77.2617 94.363 76.8424 95.3828 76.5604C95.8725 76.4249 96.3223 76.3303 96.6498 76.2695C96.8131 76.2393 96.9449 76.2177 97.0347 76.2038C97.0796 76.1968 97.1139 76.1918 97.1364 76.1886L97.161 76.1852L97.1663 76.1845C97.5357 76.1363 98.8571 75.8248 98.8571 75.4564C98.8571 75.0879 97.5364 74.7766 97.1669 74.7283L97.161 74.7275L97.1364 74.7241C97.1139 74.7209 97.0796 74.7159 97.0347 74.7089C96.9449 74.6951 96.8131 74.6735 96.6498 74.6432C96.3223 74.5825 95.8725 74.4879 95.3828 74.3524C94.363 74.0704 93.3226 73.6511 92.7663 73.1012C92.2101 72.5513 91.7859 71.5228 91.5007 70.5147C91.3636 70.0306 91.2679 69.5859 91.2065 69.2621C91.1759 69.1007 91.154 68.9704 91.14 68.8816C91.1329 68.8372 91.1279 68.8032 91.1246 68.7811L91.1212 68.7568L91.1204 68.7509Z" fill="#FFAC33"/>
<path d="M32 129.632C32 126.158 32 124.421 33.0879 123.342C34.1758 122.263 35.9267 122.263 39.4286 122.263H128.571C132.073 122.263 133.824 122.263 134.912 123.342C136 124.421 136 126.158 136 129.632C136 133.105 136 134.842 134.912 135.921C133.824 137 132.073 137 128.571 137H39.4286C35.9267 137 34.1758 137 33.0879 135.921C32 134.842 32 133.105 32 129.632Z" fill="#310872"/>
<path fill-rule="evenodd" clip-rule="evenodd" d="M85.2408 94.6437C85.143 93.8727 84.5131 90.9474 83.7679 90.9474C83.0225 90.9474 82.3925 93.8726 82.2949 94.6437L82.2933 94.6561L82.2864 94.7074C82.2799 94.7542 82.2698 94.8259 82.2557 94.9195C82.2276 95.107 82.1839 95.3821 82.1227 95.723C81.9999 96.4065 81.8085 97.3452 81.5344 98.3672C80.9639 100.496 80.1155 102.667 79.003 103.828C77.8905 104.989 75.8098 105.874 73.7702 106.469C72.7908 106.755 71.8912 106.955 71.2362 107.083C70.9095 107.147 70.6459 107.192 70.4662 107.222C70.3765 107.237 70.3078 107.247 70.2629 107.254L70.2137 107.261L70.2032 107.263C69.4644 107.365 67.2857 108.022 67.2857 108.8C67.2857 109.578 69.463 110.235 70.2019 110.337L70.2137 110.338L70.2629 110.346C70.3078 110.352 70.3765 110.363 70.4662 110.378C70.6459 110.407 70.9095 110.453 71.2362 110.516C71.8912 110.645 72.7908 110.844 73.7702 111.13C75.8098 111.726 77.8905 112.611 79.003 113.772C80.1155 114.933 80.9639 117.104 81.5344 119.232C81.8085 120.254 81.9999 121.193 82.1227 121.876C82.1839 122.217 82.2276 122.492 82.2557 122.68C82.2698 122.774 82.2799 122.845 82.2864 122.892L82.2933 122.943L82.2948 122.954C82.3924 123.725 83.0225 125.947 83.7679 125.947C84.5132 125.947 85.1432 123.727 85.2408 122.956C85.2473 122.909 85.2659 122.774 85.28 122.68C85.3081 122.492 85.3518 122.217 85.413 121.876C85.5359 121.193 85.7272 120.254 86.0013 119.232C86.5718 117.104 87.4202 114.933 88.5327 113.772C89.6452 112.611 91.7259 111.726 93.7655 111.13C94.7449 110.844 95.6445 110.645 96.2996 110.516C96.6261 110.453 96.8898 110.407 97.0695 110.378C97.1592 110.363 97.2278 110.352 97.2729 110.346L97.322 110.338L97.3326 110.337C98.0714 110.235 100.714 109.578 100.714 108.8C100.714 108.022 98.0728 107.365 97.3339 107.263L97.322 107.261L97.2729 107.254C97.2278 107.247 97.1592 107.237 97.0695 107.222C96.8898 107.192 96.6261 107.147 96.2996 107.083C95.6445 106.955 94.7449 106.755 93.7655 106.469C91.7259 105.874 89.6452 104.989 88.5327 103.828C87.4202 102.667 86.5718 100.496 86.0013 98.3672C85.7272 97.3452 85.5359 96.4065 85.413 95.723C85.3518 95.3821 85.3081 95.107 85.28 94.9195C85.2659 94.8259 85.2558 94.7542 85.2493 94.7074L85.2424 94.6561L85.2408 94.6437Z" fill="#FFAC33"/>
<path d="M82.1429 118.579L82.1396 119.079L82.1473 119.079L82.1429 118.579ZM106.094 74.7052L105.635 74.9036L105.643 74.9217L105.652 74.9391L106.094 74.7052ZM105.683 64.8938L105.225 64.692L105.216 64.7128L105.209 64.7344L105.683 64.8938ZM77.1116 51.568L76.8696 51.1305L76.865 51.1331L77.1116 51.568ZM65.4769 64.3369L65.9199 64.5686L65.927 64.5551L65.9332 64.5413L65.4769 64.3369ZM91.1204 68.7509L90.6248 68.8172L90.6252 68.8197L91.1204 68.7509ZM89.6475 68.7509L90.1427 68.8197L90.1431 68.8171L89.6475 68.7509ZM89.6466 68.7568L90.1418 68.8264L90.1419 68.8256L89.6466 68.7568ZM89.6432 68.7811L90.1379 68.8539L90.1384 68.8507L89.6432 68.7811ZM89.6278 68.8816L89.134 68.803L89.134 68.8035L89.6278 68.8816ZM89.5614 69.2621L90.0526 69.3554L90.0526 69.3553L89.5614 69.2621ZM89.2672 70.5147L88.7861 70.3785L88.7861 70.3785L89.2672 70.5147ZM85.3851 74.3524L85.2519 73.8705L85.2518 73.8705L85.3851 74.3524ZM84.1181 74.6432L84.2092 75.1348L84.2093 75.1348L84.1181 74.6432ZM83.7331 74.7089L83.6568 74.2148L83.6563 74.2149L83.7331 74.7089ZM83.6315 74.7241L83.6996 75.2195L83.7027 75.219L83.6315 74.7241ZM83.6069 74.7275L83.5388 74.2322L83.5383 74.2322L83.6069 74.7275ZM83.6016 74.7282L83.6664 75.224L83.6701 75.2235L83.6016 74.7282ZM83.6009 76.1844L83.668 75.6889L83.6657 75.6886L83.6009 76.1844ZM83.6069 76.1852L83.675 75.6899L83.674 75.6898L83.6069 76.1852ZM83.6315 76.1886L83.7027 75.6937L83.6996 75.6933L83.6315 76.1886ZM83.7331 76.2038L83.6563 76.6979L83.6568 76.698L83.7331 76.2038ZM84.1181 76.2695L84.2093 75.7779L84.2092 75.7779L84.1181 76.2695ZM85.3851 76.5604L85.2518 77.0423L85.2519 77.0423L85.3851 76.5604ZM89.2672 80.3981L88.7861 80.5342L88.7861 80.5343L89.2672 80.3981ZM89.5614 81.6506L90.0526 81.5575L90.0526 81.5574L89.5614 81.6506ZM89.6278 82.0312L89.134 82.1093L89.1341 82.1097L89.6278 82.0312ZM89.6432 82.1317L90.1384 82.0621L90.1379 82.0591L89.6432 82.1317ZM89.6466 82.156L89.1515 82.2257L89.1517 82.2266L89.6466 82.156ZM89.6474 82.1612L90.143 82.095L90.1424 82.0906L89.6474 82.1612ZM91.1204 82.1619L90.6257 82.0892L90.6248 82.0957L91.1204 82.1619ZM91.14 82.0312L91.6338 82.1097L91.6339 82.1093L91.14 82.0312ZM91.2065 81.6506L90.7153 81.5574L90.7152 81.5575L91.2065 81.6506ZM91.5007 80.3981L91.9818 80.5343L91.9818 80.5342L91.5007 80.3981ZM95.3828 76.5604L95.516 77.0423L95.5161 77.0423L95.3828 76.5604ZM96.6498 76.2695L96.5587 75.7779L96.5586 75.7779L96.6498 76.2695ZM97.0347 76.2038L97.1111 76.698L97.1115 76.6979L97.0347 76.2038ZM97.1364 76.1886L97.0683 75.6933L97.0654 75.6937L97.1364 76.1886ZM97.161 76.1852L97.2291 76.6806L97.2298 76.6805L97.161 76.1852ZM97.1663 76.1845L97.1015 75.6887L97.0975 75.6893L97.1663 76.1845ZM97.1669 74.7283L97.0994 75.2238L97.1022 75.2241L97.1669 74.7283ZM97.161 74.7275L97.0929 75.2229L97.0935 75.2229L97.161 74.7275ZM97.1364 74.7241L97.0654 75.2191L97.0683 75.2195L97.1364 74.7241ZM97.0347 74.7089L97.1115 74.2149L97.1111 74.2148L97.0347 74.7089ZM96.6498 74.6432L96.5586 75.1348L96.5587 75.1348L96.6498 74.6432ZM95.3828 74.3524L95.5161 73.8705L95.516 73.8705L95.3828 74.3524ZM91.5007 70.5147L91.9818 70.3785L91.9818 70.3785L91.5007 70.5147ZM91.2065 69.2621L90.7152 69.3553L90.7153 69.3554L91.2065 69.2621ZM91.14 68.8816L91.6339 68.8035L91.6338 68.803L91.14 68.8816ZM91.1246 68.7811L90.6295 68.8507L90.63 68.8539L91.1246 68.7811ZM91.1212 68.7568L90.626 68.8256L90.6261 68.8264L91.1212 68.7568ZM85.2408 94.6437L84.7448 94.7066L84.7451 94.7088L85.2408 94.6437ZM82.2949 94.6437L82.7906 94.7089L82.791 94.7065L82.2949 94.6437ZM82.2933 94.6561L82.7889 94.7221L82.789 94.7213L82.2933 94.6561ZM82.2864 94.7074L82.7817 94.7765L82.7821 94.7734L82.2864 94.7074ZM82.2557 94.9195L81.7613 94.8451L81.7612 94.8455L82.2557 94.9195ZM82.1227 95.723L82.6148 95.8115L82.6149 95.8114L82.1227 95.723ZM81.5344 98.3672L81.0515 98.2377L81.0514 98.2378L81.5344 98.3672ZM73.7702 106.469L73.6301 105.989L73.63 105.989L73.7702 106.469ZM71.2362 107.083L71.3322 107.574L71.3322 107.574L71.2362 107.083ZM70.4662 107.222L70.3858 106.728L70.3853 106.728L70.4662 107.222ZM70.2629 107.254L70.3347 107.749L70.338 107.748L70.2629 107.254ZM70.2137 107.261L70.1419 106.766L70.141 106.766L70.2137 107.261ZM70.2032 107.263L70.2716 107.758L70.276 107.757L70.2032 107.263ZM70.2019 110.337L70.2727 109.842L70.2701 109.841L70.2019 110.337ZM70.2137 110.338L70.2855 109.844L70.2846 109.843L70.2137 110.338ZM70.2629 110.346L70.338 109.851L70.3347 109.851L70.2629 110.346ZM70.4662 110.378L70.3853 110.871L70.3858 110.871L70.4662 110.378ZM71.2362 110.516L71.3322 110.026L71.3322 110.026L71.2362 110.516ZM73.7702 111.13L73.63 111.61L73.6301 111.61L73.7702 111.13ZM81.5344 119.232L81.0514 119.362L81.0515 119.362L81.5344 119.232ZM82.1227 121.876L82.6148 121.788L82.6148 121.788L82.1227 121.876ZM82.2557 122.68L81.7612 122.754L81.7613 122.754L82.2557 122.68ZM82.2864 122.892L82.7821 122.826L82.7817 122.823L82.2864 122.892ZM82.2933 122.943L81.7977 123.009L81.7978 123.01L82.2933 122.943ZM82.2948 122.954L82.7908 122.892L82.7903 122.887L82.2948 122.954ZM85.2408 122.956L84.7455 122.887L84.7448 122.893L85.2408 122.956ZM85.28 122.68L85.7744 122.754L85.7745 122.754L85.28 122.68ZM85.413 121.876L84.9209 121.788L84.9209 121.788L85.413 121.876ZM86.0013 119.232L86.4843 119.362L86.4843 119.362L86.0013 119.232ZM93.7655 111.13L93.9056 111.61L93.9057 111.61L93.7655 111.13ZM96.2996 110.516L96.2036 110.026L96.2035 110.026L96.2996 110.516ZM97.0695 110.378L97.1499 110.871L97.1504 110.871L97.0695 110.378ZM97.2729 110.346L97.2011 109.851L97.1979 109.851L97.2729 110.346ZM97.322 110.338L97.3938 110.833L97.3947 110.833L97.322 110.338ZM97.3326 110.337L97.2643 109.842L97.2599 109.842L97.3326 110.337ZM97.3339 107.263L97.2627 107.758L97.2656 107.758L97.3339 107.263ZM97.322 107.261L97.2503 107.756L97.2508 107.756L97.322 107.261ZM97.2729 107.254L97.1979 107.748L97.2011 107.749L97.2729 107.254ZM97.0695 107.222L97.1504 106.728L97.1499 106.728L97.0695 107.222ZM96.2996 107.083L96.2035 107.574L96.2036 107.574L96.2996 107.083ZM93.7655 106.469L93.9057 105.989L93.9056 105.989L93.7655 106.469ZM86.0013 98.3672L86.4843 98.2378L86.4843 98.2377L86.0013 98.3672ZM85.413 95.723L84.9209 95.8114L84.9209 95.8115L85.413 95.723ZM85.28 94.9195L85.7745 94.8455L85.7744 94.8451L85.28 94.9195ZM85.2493 94.7074L84.7536 94.7734L84.7541 94.7765L85.2493 94.7074ZM85.2424 94.6561L84.7467 94.7212L84.7468 94.7221L85.2424 94.6561ZM82.1429 118.579C82.1473 119.079 82.1475 119.079 82.1478 119.079C82.1481 119.079 82.1485 119.079 82.1491 119.079C82.1503 119.079 82.1521 119.079 82.1544 119.079C82.1592 119.079 82.1663 119.079 82.1757 119.079C82.1945 119.079 82.2225 119.078 82.2595 119.078C82.3335 119.077 82.4434 119.076 82.5869 119.075C82.8738 119.072 83.2951 119.068 83.8325 119.063C84.9074 119.052 86.4471 119.036 88.3061 119.016C92.024 118.974 97.0198 118.913 102.13 118.833C107.241 118.754 112.468 118.657 116.647 118.544C120.804 118.431 123.976 118.302 124.934 118.152L124.78 117.164C123.902 117.301 120.817 117.43 116.62 117.544C112.446 117.657 107.224 117.754 102.115 117.834C97.0062 117.913 92.012 117.974 88.2949 118.016C86.4364 118.036 84.8972 118.052 83.8227 118.063C83.2854 118.068 82.8643 118.072 82.5775 118.075C82.4341 118.076 82.3243 118.077 82.2504 118.078C82.2134 118.078 82.1854 118.079 82.1667 118.079C82.1573 118.079 82.1502 118.079 82.1455 118.079C82.1431 118.079 82.1414 118.079 82.1402 118.079C82.1396 118.079 82.1391 118.079 82.1388 118.079C82.1385 118.079 82.1384 118.079 82.1429 118.579ZM124.934 118.152C125.193 118.112 125.402 117.971 125.541 117.763C125.669 117.573 125.725 117.349 125.749 117.135C125.795 116.711 125.728 116.162 125.594 115.542C125.323 114.287 124.736 112.554 123.94 110.522C122.346 106.45 119.879 101.085 117.303 95.7491C114.726 90.4107 112.034 85.0914 109.987 81.1074C108.963 79.1152 108.101 77.4564 107.494 76.2957C107.191 75.7152 106.951 75.2593 106.787 74.9484C106.706 74.7929 106.643 74.6737 106.6 74.5933C106.579 74.5531 106.563 74.5227 106.552 74.5022C106.547 74.492 106.543 74.4842 106.54 74.4791C106.539 74.4765 106.538 74.4745 106.537 74.4732C106.537 74.4726 106.536 74.4721 106.536 74.4717C106.536 74.4714 106.536 74.4712 106.094 74.7052C105.652 74.9391 105.652 74.9393 105.652 74.9396C105.652 74.9399 105.653 74.9403 105.653 74.941C105.654 74.9423 105.655 74.9442 105.656 74.9467C105.659 74.9518 105.663 74.9594 105.668 74.9696C105.679 74.9899 105.695 75.0202 105.716 75.0602C105.758 75.1402 105.821 75.259 105.903 75.4141C106.066 75.7243 106.305 76.1794 106.608 76.7589C107.214 77.918 108.075 79.5746 109.097 81.5644C111.142 85.5444 113.83 90.8557 116.403 96.1839C118.976 101.515 121.43 106.852 123.009 110.887C123.801 112.909 124.364 114.581 124.617 115.753C124.745 116.347 124.783 116.767 124.755 117.027C124.748 117.088 124.738 117.132 124.729 117.163C124.724 117.178 124.72 117.188 124.717 117.195C124.713 117.202 124.712 117.205 124.712 117.205C124.721 117.192 124.751 117.168 124.78 117.164L124.934 118.152ZM106.553 74.5067C105.257 71.5101 105.116 68.1461 106.156 65.0532L105.209 64.7344C104.09 68.0614 104.241 71.6804 105.635 74.9036L106.553 74.5067ZM105.683 64.8938C106.14 65.0956 106.14 65.0954 106.14 65.0952C106.14 65.0949 106.14 65.0946 106.141 65.0941C106.141 65.0931 106.142 65.0917 106.143 65.0898C106.144 65.086 106.147 65.0804 106.15 65.0729C106.157 65.0579 106.166 65.0356 106.179 65.0062C106.205 64.9475 106.243 64.8603 106.293 64.7466C106.393 64.5191 106.539 64.1855 106.724 63.7602C107.094 62.9098 107.62 61.693 108.246 60.2271C109.497 57.2958 111.146 53.367 112.738 49.3795C114.328 45.3943 115.865 41.3416 116.889 38.1655C117.399 36.5797 117.788 35.197 117.989 34.1443C118.089 33.62 118.147 33.1567 118.145 32.7815C118.144 32.5938 118.127 32.411 118.085 32.2458C118.044 32.0838 117.969 31.9024 117.823 31.758L117.119 32.468C117.089 32.4386 117.1 32.4292 117.116 32.4924C117.131 32.5523 117.144 32.6478 117.145 32.7878C117.147 33.0683 117.102 33.4585 117.007 33.9565C116.817 34.9484 116.444 36.2849 115.937 37.8588C114.924 41.0017 113.397 45.0291 111.809 49.0088C110.221 52.9863 108.575 56.9073 107.326 59.8346C106.701 61.298 106.176 62.5127 105.807 63.3614C105.622 63.7857 105.477 64.1186 105.377 64.3452C105.328 64.4586 105.29 64.5453 105.264 64.6038C105.251 64.633 105.241 64.6551 105.235 64.6699C105.232 64.6773 105.229 64.6828 105.228 64.6865C105.227 64.6884 105.226 64.6898 105.226 64.6907C105.225 64.6911 105.225 64.6915 105.225 64.6917C105.225 64.6919 105.225 64.692 105.683 64.8938ZM117.823 31.758C117.648 31.5844 117.421 31.5285 117.246 31.5096C117.06 31.4896 116.854 31.5025 116.641 31.5329C116.214 31.5939 115.672 31.739 115.047 31.9452C113.791 32.3595 112.116 33.0488 110.177 33.9195C106.293 35.6629 101.296 38.1575 96.3654 40.7055C91.4327 43.2545 86.5589 45.8607 82.9187 47.8293C81.0985 48.8137 79.5865 49.6389 78.5294 50.218C78.0008 50.5076 77.586 50.7356 77.3033 50.8913C77.1619 50.9692 77.0535 51.0289 76.9805 51.0693C76.944 51.0894 76.9163 51.1047 76.8977 51.115C76.8884 51.1201 76.8814 51.124 76.8767 51.1266C76.8743 51.1279 76.8726 51.1289 76.8714 51.1295C76.8708 51.1298 76.8703 51.1301 76.87 51.1303C76.8697 51.1304 76.8696 51.1305 77.1116 51.568C77.3536 52.0056 77.3537 52.0055 77.354 52.0053C77.3543 52.0052 77.3547 52.0049 77.3553 52.0046C77.3565 52.004 77.3582 52.003 77.3605 52.0017C77.3651 51.9992 77.3721 51.9953 77.3813 51.9902C77.3998 51.9801 77.4273 51.9648 77.4637 51.9448C77.5365 51.9046 77.6445 51.845 77.7856 51.7673C78.0678 51.6119 78.482 51.3842 79.0098 51.095C80.0656 50.5167 81.576 49.6924 83.3944 48.7089C87.0315 46.742 91.8994 44.139 96.8244 41.5939C101.751 39.0479 106.728 36.5636 110.586 34.8318C112.517 33.965 114.155 33.2927 115.36 32.8949C115.966 32.6951 116.442 32.5715 116.782 32.5229C116.954 32.4984 117.069 32.4963 117.138 32.5038C117.217 32.5124 117.178 32.5264 117.119 32.468L117.823 31.758ZM76.865 51.1331C71.6229 54.1043 67.4731 58.6582 65.0206 64.1324L65.9332 64.5413C68.2981 59.2626 72.3004 54.8697 77.3581 52.003L76.865 51.1331ZM65.4769 64.3369C65.0338 64.1051 65.0337 64.1054 65.0335 64.1058C65.0333 64.1062 65.033 64.1068 65.0325 64.1076C65.0317 64.1092 65.0304 64.1116 65.0287 64.1148C65.0254 64.1212 65.0204 64.1308 65.0138 64.1435C65.0005 64.1689 64.9808 64.2067 64.9547 64.2566C64.9027 64.3563 64.8255 64.5043 64.725 64.6973C64.524 65.0834 64.2298 65.6495 63.8564 66.3702C63.1098 67.8117 62.047 69.8715 60.7821 72.3453C58.2525 77.2927 54.914 83.8973 51.6796 90.5238C48.4461 97.1484 45.3128 103.803 43.1959 108.847C42.1388 111.366 41.3279 113.5 40.8864 115.034C40.6674 115.795 40.529 116.442 40.5083 116.926C40.4981 117.164 40.5135 117.411 40.5954 117.625C40.6857 117.86 40.874 118.084 41.1873 118.148L41.3862 117.168C41.4907 117.189 41.5304 117.27 41.5289 117.266C41.5191 117.24 41.4994 117.153 41.5074 116.969C41.5228 116.608 41.6333 116.054 41.8474 115.31C42.272 113.835 43.0639 111.746 44.118 109.234C46.2235 104.217 49.3465 97.5835 52.5782 90.9625C55.809 84.3435 59.1444 77.7449 61.6725 72.8006C62.9365 70.3285 63.9985 68.2703 64.7444 66.8302C65.1174 66.1101 65.4113 65.5446 65.612 65.1591C65.7123 64.9664 65.7894 64.8187 65.8413 64.7192C65.8672 64.6695 65.8869 64.6318 65.9001 64.6065C65.9067 64.5939 65.9117 64.5844 65.915 64.5781C65.9166 64.5749 65.9179 64.5725 65.9187 64.5709C65.9191 64.5701 65.9194 64.5695 65.9196 64.5691C65.9198 64.5688 65.9199 64.5686 65.4769 64.3369ZM41.1873 118.148C41.6486 118.242 42.6407 118.32 43.975 118.391C45.3263 118.463 47.0703 118.528 49.0652 118.588C53.0558 118.706 58.0613 118.8 62.9603 118.873C67.8597 118.945 72.6545 118.997 76.2243 119.03C78.0092 119.047 79.4879 119.059 80.5205 119.067C81.0368 119.071 81.4415 119.074 81.7172 119.076C81.855 119.077 81.9606 119.078 82.0318 119.078C82.0673 119.078 82.0943 119.079 82.1123 119.079C82.1214 119.079 82.1282 119.079 82.1327 119.079C82.135 119.079 82.1367 119.079 82.1379 119.079C82.1385 119.079 82.1389 119.079 82.1392 119.079C82.1395 119.079 82.1396 119.079 82.1429 118.579C82.1461 118.079 82.146 118.079 82.1457 118.079C82.1454 118.079 82.145 118.079 82.1444 118.079C82.1433 118.079 82.1416 118.079 82.1393 118.079C82.1348 118.079 82.128 118.079 82.119 118.079C82.1009 118.079 82.074 118.078 82.0385 118.078C81.9675 118.078 81.862 118.077 81.7243 118.076C81.4488 118.074 81.0443 118.071 80.5282 118.067C79.4961 118.059 78.0179 118.047 76.2336 118.03C72.6649 117.997 67.8721 117.945 62.9752 117.873C58.0777 117.8 53.078 117.706 49.0949 117.588C47.103 117.529 45.3679 117.464 44.0281 117.393C42.6713 117.321 41.7602 117.244 41.3862 117.168L41.1873 118.148ZM91.616 68.6845C91.5873 68.4701 91.489 68.0014 91.3476 67.5796C91.2776 67.3705 91.1877 67.1448 91.0762 66.9619C91.0208 66.871 90.9466 66.7682 90.8487 66.683C90.7508 66.5978 90.5929 66.5 90.3839 66.5V67.5C90.2681 67.5 90.2015 67.4455 90.1924 67.4375C90.1832 67.4295 90.1951 67.4378 90.2224 67.4825C90.2763 67.5709 90.3381 67.7144 90.3995 67.8974C90.521 68.2598 90.6046 68.6665 90.6248 68.8172L91.616 68.6845ZM90.3839 66.5C90.175 66.5 90.0171 66.5978 89.9191 66.683C89.8212 66.7682 89.747 66.871 89.6916 66.9619C89.5801 67.1447 89.4902 67.3705 89.4202 67.5796C89.2788 68.0013 89.1805 68.4701 89.1519 68.6847L90.1431 68.8171C90.1632 68.6664 90.2468 68.2597 90.3683 67.8974C90.4297 67.7144 90.4915 67.5709 90.5454 67.4825C90.5726 67.4378 90.5846 67.4295 90.5754 67.4375C90.5662 67.4455 90.4997 67.5 90.3839 67.5V66.5ZM89.1522 68.6821L89.1514 68.6879L90.1419 68.8256L90.1427 68.8197L89.1522 68.6821ZM89.1515 68.6871L89.1481 68.7114L90.1384 68.8507L90.1418 68.8264L89.1515 68.6871ZM89.1486 68.7082C89.1454 68.7293 89.1407 68.7612 89.1341 68.803L90.1216 68.9601C90.1291 68.9131 90.1345 68.8772 90.1379 68.8539L89.1486 68.7082ZM89.134 68.8035C89.1206 68.8879 89.0997 69.0131 89.0701 69.169L90.0526 69.3553C90.0843 69.1882 90.107 69.0529 90.1217 68.9596L89.134 68.8035ZM89.0701 69.1689C89.0107 69.4824 88.9181 69.9121 88.7861 70.3785L89.7483 70.6509C89.8904 70.1491 89.9892 69.6894 90.0526 69.3554L89.0701 69.1689ZM88.7861 70.3785C88.503 71.3789 88.1063 72.2945 87.65 72.7456L88.353 73.4568C89.0092 72.8081 89.4608 71.6667 89.7483 70.6508L88.7861 70.3785ZM87.65 72.7456C87.1929 73.1975 86.2648 73.5904 85.2519 73.8705L85.5184 74.8343C86.545 74.5504 87.6976 74.1046 88.353 73.4568L87.65 72.7456ZM85.2518 73.8705C84.7795 74.0012 84.3443 74.0927 84.0269 74.1516L84.2093 75.1348C84.5469 75.0722 85.0113 74.9746 85.5184 74.8343L85.2518 73.8705ZM84.027 74.1516C83.8691 74.1808 83.7423 74.2016 83.6568 74.2148L83.8095 75.2031C83.9036 75.1885 84.0404 75.1661 84.2092 75.1348L84.027 74.1516ZM83.6563 74.2149C83.614 74.2215 83.5816 74.2262 83.5602 74.2292L83.7027 75.219C83.7262 75.2157 83.7625 75.2104 83.8099 75.203L83.6563 74.2149ZM83.5633 74.2288L83.5388 74.2322L83.675 75.2229L83.6996 75.2195L83.5633 74.2288ZM83.5383 74.2322L83.533 74.233L83.6701 75.2235L83.6754 75.2228L83.5383 74.2322ZM83.5367 74.2325C83.3056 74.2627 82.8993 74.3647 82.5448 74.5093C82.368 74.5815 82.1748 74.6758 82.0169 74.7955C81.8837 74.8964 81.6429 75.1151 81.6429 75.4564H82.6429C82.6429 75.6134 82.5382 75.6551 82.6208 75.5925C82.6787 75.5487 82.7808 75.4931 82.9226 75.4352C83.2051 75.32 83.5282 75.2421 83.6664 75.224L83.5367 74.2325ZM81.6429 75.4564C81.6429 75.7975 81.8834 76.0162 82.0166 76.1172C82.1745 76.2369 82.3677 76.3313 82.5444 76.4034C82.8988 76.548 83.305 76.65 83.5362 76.6802L83.6657 75.6886C83.5275 75.6706 83.2046 75.5928 82.9223 75.4775C82.7807 75.4197 82.6786 75.3642 82.6208 75.3204C82.5384 75.2579 82.6429 75.2995 82.6429 75.4564H81.6429ZM83.5338 76.6799L83.5398 76.6807L83.674 75.6898L83.668 75.689L83.5338 76.6799ZM83.5388 76.6806L83.5633 76.684L83.6996 75.6933L83.675 75.6899L83.5388 76.6806ZM83.5602 76.6835C83.5816 76.6866 83.614 76.6913 83.6563 76.6979L83.8099 75.7098C83.7625 75.7024 83.7262 75.6971 83.7027 75.6937L83.5602 76.6835ZM83.6568 76.698C83.7423 76.7112 83.8691 76.7319 84.027 76.7612L84.2092 75.7779C84.0404 75.7466 83.9036 75.7242 83.8095 75.7097L83.6568 76.698ZM84.0269 76.7612C84.3443 76.82 84.7795 76.9116 85.2518 77.0423L85.5184 76.0785C85.0113 75.9382 84.5469 75.8405 84.2093 75.7779L84.0269 76.7612ZM85.2519 77.0423C86.2648 77.3224 87.1929 77.7152 87.65 78.1672L88.353 77.456C87.6976 76.8081 86.545 76.3623 85.5184 76.0784L85.2519 77.0423ZM87.65 78.1672C88.1063 78.6183 88.503 79.5339 88.7861 80.5342L89.7483 80.262C89.4608 79.246 89.0092 78.1047 88.353 77.456L87.65 78.1672ZM88.7861 80.5343C88.9181 81.0007 89.0107 81.4304 89.0701 81.7438L90.0526 81.5574C89.9892 81.2233 89.8904 80.7637 89.7483 80.2619L88.7861 80.5343ZM89.0701 81.7438C89.0997 81.8996 89.1206 82.0249 89.134 82.1093L90.1217 81.9531C90.107 81.8599 90.0843 81.7245 90.0526 81.5575L89.0701 81.7438ZM89.1341 82.1097C89.1407 82.1515 89.1454 82.1834 89.1485 82.2044L90.1379 82.0591C90.1345 82.0356 90.1291 81.9996 90.1216 81.9526L89.1341 82.1097ZM89.1481 82.2013L89.1515 82.2257L90.1418 82.0864L90.1384 82.0621L89.1481 82.2013ZM89.1517 82.2266L89.1524 82.2319L90.1424 82.0906L90.1416 82.0854L89.1517 82.2266ZM89.1518 82.2275C89.1827 82.459 89.2869 82.8569 89.4342 83.2029C89.5077 83.3757 89.6041 83.5648 89.7266 83.7193C89.8329 83.8535 90.0517 84.0789 90.3839 84.0789V83.0789C90.5298 83.0789 90.5695 83.1729 90.5104 83.0983C90.4674 83.044 90.4121 82.9472 90.3542 82.8112C90.2386 82.5396 90.1608 82.2287 90.143 82.095L89.1518 82.2275ZM90.3839 84.0789C90.716 84.0789 90.9348 83.8537 91.0412 83.7195C91.1636 83.565 91.2601 83.376 91.3336 83.2033C91.4809 82.8575 91.585 82.4597 91.616 82.2281L90.6248 82.0957C90.6069 82.2293 90.5292 82.5401 90.4136 82.8115C90.3557 82.9473 90.3005 83.0441 90.2576 83.0983C90.1985 83.1728 90.2382 83.0789 90.3839 83.0789V84.0789ZM91.6151 82.2346C91.6187 82.2101 91.6273 82.1503 91.6338 82.1097L90.6462 81.9526C90.6386 82.0008 90.6287 82.0692 90.6257 82.0892L91.6151 82.2346ZM91.6339 82.1093C91.6472 82.0249 91.6682 81.8996 91.6977 81.7438L90.7152 81.5575C90.6836 81.7245 90.6609 81.8599 90.6461 81.9531L91.6339 82.1093ZM91.6977 81.7438C91.7572 81.4304 91.8497 81.0007 91.9818 80.5343L91.0196 80.2619C90.8775 80.7637 90.7787 81.2233 90.7153 81.5574L91.6977 81.7438ZM91.9818 80.5342C92.2648 79.5339 92.6615 78.6183 93.1179 78.1672L92.4148 77.456C91.7587 78.1047 91.307 79.246 91.0196 80.262L91.9818 80.5342ZM93.1179 78.1672C93.575 77.7153 94.503 77.3224 95.516 77.0423L95.2495 76.0784C94.2229 76.3623 93.0702 76.8081 92.4148 77.456L93.1179 78.1672ZM95.5161 77.0423C95.9884 76.9116 96.4235 76.82 96.7409 76.7612L96.5586 75.7779C96.221 75.8405 95.7565 75.9382 95.2494 76.0785L95.5161 77.0423ZM96.7409 76.7612C96.8987 76.7319 97.0256 76.7112 97.1111 76.698L96.9584 75.7097C96.8643 75.7242 96.7274 75.7466 96.5587 75.7779L96.7409 76.7612ZM97.1115 76.6979C97.1539 76.6913 97.1862 76.6866 97.2075 76.6835L97.0654 75.6937C97.0417 75.6971 97.0053 75.7024 96.9579 75.7098L97.1115 76.6979ZM97.2045 76.684L97.2291 76.6806L97.0929 75.6899L97.0683 75.6933L97.2045 76.684ZM97.2298 76.6805L97.2351 76.6797L97.0975 75.6893L97.0922 75.69L97.2298 76.6805ZM97.231 76.6803C97.4505 76.6516 97.9062 76.5537 98.3134 76.4132C98.5154 76.3434 98.7341 76.2537 98.9116 76.1417C99 76.086 99.0999 76.0113 99.1825 75.9131C99.2655 75.8142 99.3571 75.659 99.3571 75.4564H98.3571C98.3571 75.3459 98.4075 75.281 98.4168 75.2699C98.4256 75.2593 98.4194 75.2699 98.3782 75.2959C98.2964 75.3474 98.1617 75.4076 97.9871 75.4679C97.6413 75.5872 97.2515 75.6691 97.1015 75.6887L97.231 76.6803ZM99.3571 75.4564C99.3571 75.2539 99.2656 75.0986 99.1826 74.9998C99.1001 74.9015 99.0002 74.8269 98.9118 74.7711C98.7343 74.6591 98.5157 74.5694 98.3137 74.4996C97.9067 74.3591 97.4512 74.2612 97.2317 74.2325L97.1022 75.2241C97.2521 75.2437 97.6417 75.3256 97.9874 75.4449C98.1618 75.5051 98.2965 75.5653 98.3782 75.6169C98.4194 75.6428 98.4256 75.6534 98.4168 75.6428C98.4074 75.6317 98.3571 75.5668 98.3571 75.4564H99.3571ZM97.2344 74.2329L97.2285 74.2321L97.0935 75.2229L97.0994 75.2237L97.2344 74.2329ZM97.2291 74.2322L97.2045 74.2288L97.0683 75.2195L97.0929 75.2229L97.2291 74.2322ZM97.2075 74.2292C97.1862 74.2262 97.1539 74.2215 97.1115 74.2149L96.9579 75.203C97.0053 75.2104 97.0417 75.2157 97.0654 75.2191L97.2075 74.2292ZM97.1111 74.2148C97.0256 74.2016 96.8987 74.1808 96.7409 74.1516L96.5587 75.1348C96.7274 75.1661 96.8642 75.1885 96.9584 75.2031L97.1111 74.2148ZM96.7409 74.1516C96.4235 74.0927 95.9884 74.0012 95.5161 73.8705L95.2494 74.8343C95.7565 74.9746 96.221 75.0722 96.5586 75.1348L96.7409 74.1516ZM95.516 73.8705C94.503 73.5904 93.575 73.1975 93.1179 72.7456L92.4148 73.4567C93.0702 74.1047 94.2229 74.5504 95.2495 74.8343L95.516 73.8705ZM93.1179 72.7456C92.6615 72.2945 92.2648 71.3789 91.9818 70.3785L91.0195 70.6508C91.307 71.6667 91.7587 72.8081 92.4148 73.4567L93.1179 72.7456ZM91.9818 70.3785C91.8497 69.9121 91.7572 69.4824 91.6977 69.1689L90.7153 69.3554C90.7787 69.6894 90.8775 70.149 91.0196 70.6509L91.9818 70.3785ZM91.6977 69.169C91.6682 69.0131 91.6472 68.8879 91.6339 68.8035L90.6461 68.9596C90.6609 69.0529 90.6836 69.1882 90.7152 69.3553L91.6977 69.169ZM91.6338 68.803C91.6272 68.7612 91.6224 68.7293 91.6193 68.7082L90.63 68.8539C90.6334 68.8772 90.6387 68.9131 90.6462 68.9601L91.6338 68.803ZM91.6198 68.7114L91.6163 68.6871L90.6261 68.8264L90.6295 68.8507L91.6198 68.7114ZM91.6165 68.6879L91.6156 68.6821L90.6252 68.8197L90.626 68.8256L91.6165 68.6879ZM39.4286 122.763H128.571V121.763H39.4286V122.763ZM128.571 136.5H39.4286V137.5H128.571V136.5ZM39.4286 136.5C37.6636 136.5 36.3898 136.499 35.4191 136.37C34.4623 136.242 33.8754 135.998 33.44 135.566L32.7358 136.276C33.3883 136.923 34.2207 137.219 35.2869 137.361C36.3391 137.501 37.6917 137.5 39.4286 137.5V136.5ZM31.5 129.632C31.5 131.354 31.4989 132.697 31.6405 133.741C31.7841 134.801 32.0827 135.628 32.7358 136.276L33.44 135.566C33.0052 135.135 32.7598 134.554 32.6315 133.607C32.5011 132.645 32.5 131.383 32.5 129.632H31.5ZM135.5 129.632C135.5 131.383 135.499 132.645 135.369 133.607C135.24 134.554 134.995 135.135 134.56 135.566L135.264 136.276C135.917 135.628 136.216 134.801 136.359 133.741C136.501 132.697 136.5 131.354 136.5 129.632H135.5ZM128.571 137.5C130.308 137.5 131.661 137.501 132.713 137.361C133.779 137.219 134.612 136.923 135.264 136.276L134.56 135.566C134.125 135.998 133.538 136.242 132.581 136.37C131.61 136.499 130.336 136.5 128.571 136.5V137.5ZM128.571 122.763C130.336 122.763 131.61 122.764 132.581 122.894C133.538 123.021 134.125 123.265 134.56 123.697L135.264 122.987C134.612 122.34 133.779 122.045 132.713 121.902C131.661 121.762 130.308 121.763 128.571 121.763V122.763ZM136.5 129.632C136.5 127.909 136.501 126.566 136.359 125.522C136.216 124.462 135.917 123.635 135.264 122.987L134.56 123.697C134.995 124.129 135.24 124.709 135.369 125.656C135.499 126.618 135.5 127.881 135.5 129.632H136.5ZM39.4286 121.763C37.6917 121.763 36.3391 121.762 35.2869 121.902C34.2207 122.045 33.3883 122.34 32.7358 122.987L33.44 123.697C33.8754 123.265 34.4623 123.021 35.4191 122.894C36.3898 122.764 37.6636 122.763 39.4286 122.763V121.763ZM32.5 129.632C32.5 127.881 32.5011 126.618 32.6315 125.656C32.7598 124.709 33.0052 124.129 33.44 123.697L32.7358 122.987C32.0827 123.635 31.7841 124.462 31.6405 125.522C31.4989 126.566 31.5 127.909 31.5 129.632H32.5ZM85.7368 94.5808C85.6841 94.165 85.4956 93.2114 85.2237 92.3551C85.0883 91.9289 84.9238 91.4991 84.7316 91.1664C84.636 91.0009 84.5202 90.8357 84.3793 90.7063C84.2394 90.5778 84.0326 90.4474 83.7679 90.4474V91.4474C83.6894 91.4474 83.6654 91.4084 83.7029 91.4428C83.7395 91.4764 83.7959 91.5458 83.8657 91.6666C84.0043 91.9065 84.1431 92.2562 84.2706 92.6578C84.5244 93.4569 84.6997 94.3514 84.7448 94.7066L85.7368 94.5808ZM83.7679 90.4474C83.5031 90.4474 83.2964 90.5777 83.1564 90.7063C83.0155 90.8357 82.8997 91.0009 82.804 91.1664C82.6118 91.4991 82.4473 91.9289 82.3119 92.355C82.04 93.2113 81.8515 94.165 81.7989 94.5809L82.791 94.7065C82.8359 94.3513 83.0112 93.4568 83.265 92.6577C83.3925 92.2562 83.5313 91.9065 83.6699 91.6666C83.7397 91.5458 83.7962 91.4764 83.8327 91.4429C83.8703 91.4084 83.8463 91.4474 83.7679 91.4474V90.4474ZM81.7992 94.5784L81.7976 94.5908L82.789 94.7213L82.7906 94.7089L81.7992 94.5784ZM81.7977 94.5901L81.7908 94.6414L82.7821 94.7734L82.7889 94.7221L81.7977 94.5901ZM81.7912 94.6383C81.7848 94.6841 81.775 94.7538 81.7613 94.8451L82.7501 94.994C82.7646 94.8979 82.775 94.8243 82.7817 94.7765L81.7912 94.6383ZM81.7612 94.8455C81.7338 95.0288 81.6909 95.2991 81.6306 95.6346L82.6149 95.8114C82.677 95.4652 82.7215 95.1853 82.7502 94.9936L81.7612 94.8455ZM81.6306 95.6345C81.5095 96.3082 81.321 97.2327 81.0515 98.2377L82.0173 98.4968C82.296 97.4578 82.4902 96.5048 82.6148 95.8115L81.6306 95.6345ZM81.0514 98.2378C80.4824 100.361 79.6592 102.42 78.642 103.482L79.364 104.174C80.5719 102.913 81.4453 100.631 82.0173 98.4967L81.0514 98.2378ZM78.642 103.482C77.6277 104.54 75.6605 105.396 73.6301 105.989L73.9103 106.949C75.9591 106.351 78.1533 105.437 79.364 104.174L78.642 103.482ZM73.63 105.989C72.6688 106.27 71.7845 106.466 71.1402 106.592L71.3322 107.574C71.9979 107.443 72.9128 107.24 73.9104 106.949L73.63 105.989ZM71.1402 106.592C70.8193 106.655 70.5609 106.7 70.3858 106.728L70.5467 107.715C70.731 107.685 70.9998 107.639 71.3322 107.574L71.1402 106.592ZM70.3853 106.728C70.2982 106.743 70.2316 106.753 70.1878 106.76L70.338 107.748C70.384 107.741 70.4547 107.73 70.5472 107.715L70.3853 106.728ZM70.1911 106.759L70.1419 106.766L70.2855 107.756L70.3347 107.749L70.1911 106.759ZM70.141 106.766L70.1304 106.768L70.276 107.757L70.2865 107.756L70.141 106.766ZM70.1348 106.767C69.7165 106.825 68.9437 107.028 68.2696 107.319C67.9327 107.464 67.5912 107.643 67.3254 107.855C67.0793 108.052 66.7857 108.368 66.7857 108.8H67.7857C67.7857 108.843 67.7645 108.785 67.95 108.636C68.1157 108.504 68.3651 108.366 68.6652 108.237C69.2651 107.979 69.951 107.802 70.2716 107.758L70.1348 106.767ZM66.7857 108.8C66.7857 109.231 67.079 109.547 67.325 109.744C67.5907 109.957 67.9321 110.136 68.2689 110.281C68.9427 110.571 69.7152 110.774 70.1336 110.832L70.2701 109.841C69.9497 109.797 69.2641 109.621 68.6645 109.363C68.3647 109.233 68.1155 109.096 67.9499 108.963C67.7646 108.815 67.7857 108.757 67.7857 108.8H66.7857ZM70.131 110.832L70.1429 110.833L70.2846 109.843L70.2727 109.842L70.131 110.832ZM70.1419 110.833L70.1911 110.84L70.3347 109.851L70.2855 109.844L70.1419 110.833ZM70.1878 110.84C70.2316 110.847 70.2982 110.857 70.3853 110.871L70.5472 109.884C70.4547 109.869 70.384 109.858 70.338 109.851L70.1878 110.84ZM70.3858 110.871C70.5609 110.9 70.8193 110.944 71.1402 111.007L71.3322 110.026C70.9998 109.961 70.731 109.914 70.5467 109.884L70.3858 110.871ZM71.1402 111.007C71.7845 111.133 72.6688 111.33 73.63 111.61L73.9104 110.65C72.9128 110.359 71.9979 110.156 71.3322 110.026L71.1402 111.007ZM73.6301 111.61C75.6605 112.203 77.6277 113.059 78.642 114.118L79.364 113.426C78.1533 112.163 75.9591 111.248 73.9103 110.65L73.6301 111.61ZM78.642 114.118C79.6592 115.179 80.4824 117.239 81.0514 119.362L82.0173 119.103C81.4453 116.969 80.5719 114.686 79.364 113.426L78.642 114.118ZM81.0515 119.362C81.321 120.367 81.5095 121.291 81.6306 121.965L82.6148 121.788C82.4902 121.095 82.296 120.142 82.0173 119.103L81.0515 119.362ZM81.6306 121.965C81.6909 122.3 81.7338 122.571 81.7612 122.754L82.7502 122.606C82.7215 122.414 82.677 122.134 82.6148 121.788L81.6306 121.965ZM81.7613 122.754C81.775 122.846 81.7848 122.915 81.7912 122.961L82.7817 122.823C82.775 122.775 82.7646 122.701 82.7501 122.605L81.7613 122.754ZM81.7908 122.958L81.7977 123.009L82.7889 122.877L82.7821 122.826L81.7908 122.958ZM81.7978 123.01L81.7993 123.021L82.7903 122.887L82.7888 122.876L81.7978 123.01ZM81.7987 123.017C81.8534 123.449 82.0472 124.239 82.3247 124.927C82.4632 125.27 82.634 125.618 82.8371 125.888C83.021 126.133 83.3305 126.447 83.7679 126.447V125.447C83.8326 125.447 83.7837 125.484 83.6368 125.288C83.509 125.118 83.3765 124.861 83.2521 124.553C83.0038 123.937 82.8337 123.231 82.7908 122.892L81.7987 123.017ZM83.7679 126.447C84.2051 126.447 84.5146 126.134 84.6985 125.889C84.9016 125.618 85.0724 125.271 85.2109 124.928C85.4883 124.24 85.6821 123.451 85.7368 123.019L84.7448 122.893C84.7018 123.232 84.5319 123.938 84.2836 124.554C84.1592 124.862 84.0267 125.118 83.8989 125.288C83.7521 125.484 83.7033 125.447 83.7679 125.447V126.447ZM85.736 123.025C85.7429 122.976 85.7609 122.844 85.7744 122.754L84.7856 122.605C84.7709 122.703 84.7518 122.842 84.7456 122.887L85.736 123.025ZM85.7745 122.754C85.8019 122.571 85.8449 122.3 85.9051 121.965L84.9209 121.788C84.8587 122.134 84.8142 122.414 84.7855 122.606L85.7745 122.754ZM85.9051 121.965C86.0262 121.291 86.2147 120.367 86.4843 119.362L85.5184 119.103C85.2397 120.142 85.0455 121.095 84.9209 121.788L85.9051 121.965ZM86.4843 119.362C87.0533 117.239 87.8765 115.179 88.8937 114.118L88.1717 113.426C86.9638 114.686 86.0904 116.969 85.5184 119.103L86.4843 119.362ZM88.8937 114.118C89.908 113.059 91.8752 112.203 93.9056 111.61L93.6254 110.65C91.5767 111.248 89.3824 112.163 88.1717 113.426L88.8937 114.118ZM93.9057 111.61C94.8669 111.33 95.7512 111.133 96.3956 111.007L96.2035 110.026C95.5378 110.156 94.6229 110.359 93.6254 110.65L93.9057 111.61ZM96.3955 111.007C96.7164 110.944 96.9749 110.9 97.1499 110.871L96.989 109.884C96.8048 109.914 96.5359 109.961 96.2036 110.026L96.3955 111.007ZM97.1504 110.871C97.2375 110.857 97.304 110.847 97.3478 110.84L97.1979 109.851C97.1517 109.858 97.0809 109.869 96.9885 109.884L97.1504 110.871ZM97.3446 110.84L97.3938 110.833L97.2503 109.844L97.2011 109.851L97.3446 110.84ZM97.3947 110.833L97.4052 110.832L97.2599 109.842L97.2494 109.844L97.3947 110.833ZM97.4009 110.832C97.8069 110.776 98.6868 110.577 99.4716 110.292C99.8627 110.149 100.259 109.975 100.567 109.77C100.721 109.668 100.873 109.544 100.991 109.396C101.109 109.247 101.214 109.045 101.214 108.8H100.214C100.214 108.749 100.237 108.738 100.208 108.774C100.178 108.811 100.118 108.867 100.013 108.937C99.8019 109.078 99.4913 109.22 99.1294 109.352C98.4081 109.615 97.5971 109.796 97.2643 109.842L97.4009 110.832ZM101.214 108.8C101.214 108.555 101.109 108.353 100.991 108.203C100.873 108.055 100.721 107.932 100.567 107.83C100.259 107.625 99.8633 107.45 99.4724 107.308C98.6878 107.022 97.8083 106.823 97.4022 106.767L97.2656 107.758C97.5984 107.804 98.409 107.985 99.13 108.248C99.4918 108.379 99.8022 108.522 100.013 108.662C100.118 108.732 100.178 108.789 100.208 108.826C100.237 108.862 100.214 108.85 100.214 108.8H101.214ZM97.4051 106.768L97.3932 106.766L97.2508 107.756L97.2627 107.758L97.4051 106.768ZM97.3938 106.766L97.3446 106.759L97.2011 107.749L97.2503 107.756L97.3938 106.766ZM97.3478 106.76C97.304 106.753 97.2375 106.743 97.1504 106.728L96.9885 107.715C97.0809 107.73 97.1517 107.741 97.1979 107.748L97.3478 106.76ZM97.1499 106.728C96.9749 106.7 96.7164 106.655 96.3955 106.592L96.2036 107.574C96.5359 107.639 96.8048 107.685 96.989 107.715L97.1499 106.728ZM96.3956 106.592C95.7512 106.466 94.8669 106.27 93.9057 105.989L93.6254 106.949C94.6229 107.24 95.5378 107.443 96.2035 107.574L96.3956 106.592ZM93.9056 105.989C91.8752 105.396 89.908 104.54 88.8937 103.482L88.1717 104.174C89.3824 105.437 91.5767 106.351 93.6254 106.949L93.9056 105.989ZM88.8937 103.482C87.8765 102.42 87.0533 100.361 86.4843 98.2378L85.5184 98.4967C86.0904 100.631 86.9638 102.913 88.1717 104.174L88.8937 103.482ZM86.4843 98.2377C86.2147 97.2327 86.0262 96.3082 85.9051 95.6345L84.9209 95.8115C85.0455 96.5048 85.2397 97.4578 85.5184 98.4968L86.4843 98.2377ZM85.9051 95.6346C85.8449 95.2991 85.8019 95.0288 85.7745 94.8455L84.7855 94.9936C84.8142 95.1853 84.8587 95.4652 84.9209 95.8114L85.9051 95.6346ZM85.7744 94.8451C85.7607 94.7538 85.7509 94.6841 85.7445 94.6383L84.7541 94.7765C84.7607 94.8243 84.7711 94.8979 84.7856 94.994L85.7744 94.8451ZM85.7449 94.6413L85.738 94.59L84.7468 94.7221L84.7536 94.7734L85.7449 94.6413ZM85.7382 94.591L85.7365 94.5786L84.7451 94.7088L84.7467 94.7212L85.7382 94.591Z" fill="#310872" mask="url(#path-1-outside-1_226_190)"/>
<g clip-path="url(#clip0_226_190)">
<path d="M163.422 118.552C162.288 118.552 161.463 118.398 160.947 118.09C160.483 117.782 160.251 117.371 160.251 116.857V65.9964C160.251 65.4313 160.483 65.0203 160.947 64.7634C161.463 64.4552 162.288 64.3011 163.422 64.3011H166.13C167.316 64.3011 168.218 64.4295 168.837 64.6864C169.507 64.8919 169.945 65.2258 170.151 65.6882L183.455 91.5037C183.816 92.1715 184.177 92.9421 184.538 93.8155C184.95 94.6889 185.259 95.5366 185.466 96.3585C185.724 95.4852 186.084 94.5861 186.549 93.6614C187.064 92.6853 187.502 91.889 187.863 91.2725L200.857 65.6882C201.115 65.2258 201.553 64.8919 202.172 64.6864C202.791 64.4295 203.668 64.3011 204.802 64.3011H207.277C208.463 64.3011 209.288 64.4552 209.752 64.7634C210.216 65.0203 210.448 65.4313 210.448 65.9964V116.857C210.448 117.371 210.216 117.782 209.752 118.09C209.288 118.398 208.463 118.552 207.277 118.552H206.658C205.524 118.552 204.699 118.398 204.183 118.09C203.719 117.782 203.487 117.371 203.487 116.857V79.7904C203.487 79.0711 203.487 78.3519 203.487 77.6327C203.487 76.9134 203.513 76.2198 203.564 75.552L203.255 75.4749C202.946 76.0914 202.636 76.6822 202.327 77.2473C202.069 77.8125 201.785 78.3776 201.476 78.9427L189.797 101.753C189.436 102.421 188.998 102.857 188.482 103.063C188.018 103.268 187.27 103.371 186.239 103.371H184.692C183.713 103.371 182.965 103.268 182.449 103.063C181.985 102.857 181.547 102.421 181.134 101.753L169.223 78.4803C168.914 77.9152 168.605 77.3501 168.295 76.785C168.037 76.2198 167.754 75.6291 167.444 75.0126L167.135 75.0896C167.187 75.7575 167.212 76.451 167.212 77.1703C167.212 77.8895 167.212 78.6087 167.212 79.328V116.857C167.212 117.371 166.98 117.782 166.516 118.09C166.052 118.398 165.227 118.552 164.041 118.552H163.422ZM237.037 118.86C231.21 118.86 226.75 117.114 223.656 113.62C220.614 110.127 219.093 105.066 219.093 98.4392C219.093 91.7606 220.64 86.6231 223.734 83.0269C226.828 79.4308 231.262 77.6327 237.037 77.6327C242.709 77.6327 247.041 79.4308 250.031 83.0269C253.073 86.5718 254.594 91.7092 254.594 98.4392C254.594 105.118 253.099 110.204 250.108 113.697C247.169 117.139 242.812 118.86 237.037 118.86ZM236.805 113.312C240.569 113.312 243.328 112.105 245.081 109.69C246.886 107.224 247.788 103.422 247.788 98.2851C247.788 93.1477 246.886 89.346 245.081 86.88C243.328 84.414 240.569 83.1811 236.805 83.1811C233.041 83.1811 230.282 84.414 228.529 86.88C226.776 89.2946 225.899 93.0963 225.899 98.2851C225.899 103.422 226.776 107.224 228.529 109.69C230.282 112.105 233.041 113.312 236.805 113.312ZM278.442 118.86C272.461 118.86 267.898 117.319 264.752 114.237C261.607 111.154 260.034 105.888 260.034 98.4392C260.034 91.7606 261.607 86.6231 264.752 83.0269C267.898 79.4308 272.436 77.6327 278.365 77.6327C279.912 77.6327 281.382 77.7611 282.774 78.018C284.166 78.2234 285.403 78.5317 286.486 78.9427C287.569 79.3537 288.42 79.7904 289.039 80.2527C289.709 80.7151 290.044 81.1775 290.044 81.6398C290.044 82.0509 289.941 82.5646 289.735 83.1811C289.529 83.7462 289.271 84.2599 288.961 84.7223C288.652 85.1333 288.317 85.3388 287.956 85.3388C287.595 85.3388 286.976 85.1589 286.1 84.7993C285.275 84.4397 284.192 84.0801 282.851 83.7205C281.51 83.3609 279.886 83.1811 277.978 83.1811C274.317 83.1811 271.533 84.4397 269.625 86.9571C267.769 89.4744 266.841 93.2504 266.841 98.2851C266.841 103.474 267.769 107.276 269.625 109.69C271.533 112.105 274.524 113.312 278.597 113.312C280.35 113.312 281.923 113.081 283.315 112.618C284.707 112.156 285.868 111.694 286.796 111.231C287.724 110.769 288.343 110.538 288.652 110.538C289.013 110.538 289.322 110.769 289.58 111.231C289.889 111.642 290.148 112.13 290.354 112.696C290.56 113.261 290.663 113.749 290.663 114.16C290.663 114.622 290.276 115.136 289.503 115.701C288.781 116.266 287.827 116.78 286.641 117.242C285.455 117.704 284.14 118.09 282.696 118.398C281.253 118.706 279.835 118.86 278.442 118.86ZM300.204 118.552C299.069 118.552 298.27 118.398 297.806 118.09C297.393 117.782 297.187 117.371 297.187 116.857V62.1433C297.187 61.5782 297.393 61.1672 297.806 60.9104C298.27 60.6021 299.069 60.448 300.204 60.448H300.822C301.956 60.448 302.73 60.6021 303.143 60.9104C303.607 61.1672 303.839 61.5782 303.839 62.1433V96.2044H304.148L318.921 79.0198C319.179 78.7115 319.436 78.4803 319.694 78.3262C320.004 78.1721 320.339 78.0693 320.7 78.018C321.113 77.9666 321.628 77.9409 322.247 77.9409H323.33C324.154 77.9409 324.799 78.018 325.263 78.1721C325.779 78.3262 326.037 78.6087 326.037 79.0198C326.037 79.2252 325.959 79.4564 325.805 79.7133C325.65 79.9702 325.444 80.2527 325.186 80.561L308.789 99.441V95.8191L326.81 116.24C327.068 116.549 327.248 116.805 327.352 117.011C327.455 117.165 327.506 117.319 327.506 117.473C327.506 117.884 327.223 118.167 326.655 118.321C326.14 118.475 325.289 118.552 324.103 118.552H323.407C322.273 118.552 321.422 118.449 320.855 118.244C320.339 117.987 319.772 117.525 319.153 116.857L304.148 99.6722H303.839V116.857C303.839 117.371 303.607 117.782 303.143 118.09C302.73 118.398 301.956 118.552 300.822 118.552H300.204ZM338.14 118.552C337.006 118.552 336.18 118.398 335.665 118.09C335.201 117.782 334.969 117.371 334.969 116.857V65.9964C334.969 65.4313 335.201 65.0203 335.665 64.7634C336.18 64.4552 337.006 64.3011 338.14 64.3011H338.759C339.945 64.3011 340.77 64.4552 341.234 64.7634C341.698 65.0203 341.93 65.4313 341.93 65.9964V87.8047H369.697V65.9964C369.697 65.4313 369.929 65.0203 370.393 64.7634C370.908 64.4552 371.733 64.3011 372.868 64.3011H373.486C374.673 64.3011 375.497 64.4552 375.961 64.7634C376.426 65.0203 376.658 65.4313 376.658 65.9964V116.857C376.658 117.371 376.426 117.782 375.961 118.09C375.497 118.398 374.673 118.552 373.486 118.552H372.868C371.733 118.552 370.908 118.398 370.393 118.09C369.929 117.782 369.697 117.371 369.697 116.857V93.6614H341.93V116.857C341.93 117.371 341.698 117.782 341.234 118.09C340.77 118.398 339.945 118.552 338.759 118.552H338.14ZM398.113 118.86C394.349 118.86 391.203 117.936 388.677 116.086C386.15 114.185 384.887 111.257 384.887 107.301C384.887 104.681 385.325 102.472 386.202 100.674C387.079 98.8758 388.496 97.4374 390.456 96.3585C392.467 95.2797 395.096 94.5091 398.345 94.0467C401.645 93.533 405.667 93.2761 410.411 93.2761V89.6542C410.411 88.4726 410.153 87.3937 409.637 86.4176C409.122 85.4415 408.245 84.6709 407.007 84.1058C405.821 83.4893 404.172 83.1811 402.057 83.1811C399.737 83.1811 397.675 83.438 395.87 83.9517C394.117 84.4654 392.673 84.9792 391.539 85.4929C390.456 86.0066 389.734 86.2635 389.373 86.2635C389.115 86.2635 388.857 86.1351 388.599 85.8782C388.393 85.6213 388.187 85.2874 387.981 84.8764C387.775 84.414 387.594 83.9517 387.439 83.4893C387.336 83.0269 387.285 82.6159 387.285 82.2563C387.285 81.8453 387.723 81.3829 388.599 80.8692C389.476 80.3555 390.636 79.8674 392.08 79.4051C393.575 78.8913 395.2 78.4803 396.953 78.1721C398.758 77.8125 400.562 77.6327 402.367 77.6327C404.687 77.6327 406.749 77.9152 408.554 78.4803C410.411 78.994 411.958 79.7904 413.195 80.8692C414.433 81.8967 415.387 83.1554 416.057 84.6452C416.727 86.1351 417.062 87.8304 417.062 89.7313V106.839C417.062 108.945 417.114 110.666 417.217 112.002C417.372 113.338 417.5 114.391 417.604 115.161C417.758 115.881 417.836 116.42 417.836 116.78C417.836 117.037 417.681 117.268 417.372 117.473C417.062 117.679 416.676 117.859 416.211 118.013C415.747 118.116 415.257 118.218 414.742 118.321C414.227 118.372 413.762 118.398 413.35 118.398C412.886 118.398 412.525 118.244 412.267 117.936C412.009 117.576 411.777 117.011 411.571 116.24C411.365 115.418 411.133 114.365 410.875 113.081C409.947 114.16 408.838 115.136 407.549 116.009C406.311 116.883 404.893 117.576 403.295 118.09C401.748 118.604 400.02 118.86 398.113 118.86ZM398.422 113.235C400.278 113.235 401.903 112.978 403.295 112.464C404.738 111.951 406.028 111.308 407.162 110.538C408.348 109.716 409.431 108.842 410.411 107.918V98.8245C406.595 98.8245 403.476 98.9786 401.052 99.2869C398.628 99.5437 396.747 99.9804 395.406 100.597C394.065 101.213 393.137 102.061 392.621 103.14C392.106 104.167 391.848 105.426 391.848 106.916C391.848 108.971 392.389 110.538 393.472 111.617C394.606 112.696 396.257 113.235 398.422 113.235ZM437.785 118.86C435.722 118.86 433.995 118.475 432.603 117.704C431.262 116.934 430.231 115.804 429.509 114.314C428.839 112.773 428.503 110.897 428.503 108.688V83.6434H424.636C423.605 83.6434 423.089 82.8728 423.089 81.3316V80.4069C423.089 78.8656 423.605 78.095 424.636 78.095H428.503L429.431 70.0036C429.535 69.4385 429.767 69.0275 430.127 68.7706C430.54 68.4624 431.107 68.3082 431.829 68.3082H432.448C433.479 68.3082 434.175 68.4624 434.536 68.7706C434.949 69.0275 435.155 69.4385 435.155 70.0036V78.095H441.729C442.761 78.095 443.276 78.8656 443.276 80.4069V81.3316C443.276 82.8728 442.761 83.6434 441.729 83.6434H435.155V108.688C435.155 110.332 435.413 111.488 435.928 112.156C436.496 112.824 437.449 113.158 438.79 113.158C439.976 113.158 440.827 113.029 441.342 112.773C441.858 112.516 442.297 112.387 442.657 112.387C442.915 112.387 443.121 112.567 443.276 112.927C443.482 113.235 443.611 113.62 443.663 114.083C443.766 114.545 443.817 114.982 443.817 115.393C443.869 115.804 443.895 116.086 443.895 116.24C443.895 116.754 443.534 117.216 442.812 117.627C442.142 118.038 441.316 118.347 440.337 118.552C439.409 118.758 438.558 118.86 437.785 118.86Z" fill="#310872"/>
</g>
<defs>
<clipPath id="clip0_226_190">
<rect width="284" height="59" fill="white" transform="translate(160 60)"/>
</clipPath>
</defs>
</svg>
