<svg width="879" height="218" viewBox="0 0 879 218" fill="none" xmlns="http://www.w3.org/2000/svg">
<mask id="path-1-outside-1_205_4" maskUnits="userSpaceOnUse" x="38" y="38" width="803" height="142" fill="black">
<rect fill="white" x="38" y="38" width="803" height="142"/>
<path d="M40 171.011C48.6187 168.085 59.1888 161.746 60.6523 143.703L66.0187 80.9611C67.3196 65.5194 58.8636 58.3675 51.2206 56.2544V51.3781H92.5252L122.447 120.459L149.766 51.3781H194.649V56.2544C187.006 58.3675 178.387 65.5194 179.85 80.9611L185.705 146.304C187.006 161.583 192.86 168.898 200.503 171.011V175.887H140.335V171.011C148.953 167.922 156.434 161.908 155.133 146.304L148.628 71.5336L114.966 159.958H109.437L72.5234 81.9364L67.157 143.703C65.5308 161.746 81.6299 168.085 90.5738 171.011V175.887H40V171.011Z"/>
<path d="M257.717 178C228.446 178 210.558 162.071 210.558 131.837C210.558 102.579 228.771 84.212 257.717 84.212C286.988 84.212 304.388 102.905 304.388 132.325C304.388 162.071 286.663 178 257.717 178ZM257.717 91.5265C243.57 91.5265 241.618 116.233 241.618 131.675C241.618 146.629 242.919 170.848 257.717 170.848C271.865 170.848 273.328 145.166 273.328 131.675C273.328 116.233 271.702 91.5265 257.717 91.5265Z"/>
<path d="M364.719 175.887C336.261 175.887 319.674 159.633 319.674 131.025C319.674 100.629 339.513 84.212 368.622 84.212C382.77 84.0495 396.755 88.4382 403.91 98.1908L393.502 122.898L389.437 121.76C389.274 111.519 383.583 89.576 367.321 90.7138C353.173 91.8516 350.246 111.845 350.246 122.41C350.246 140.615 357.564 159.958 378.216 159.958C386.672 159.958 395.616 157.357 401.796 151.343L403.91 155.406C396.104 169.223 380.005 175.887 364.719 175.887Z"/>
<path d="M424.909 81.4488C424.909 71.371 422.47 57.7173 412.225 56.2544V51.3781C424.584 50.8905 441.333 45.8516 451.09 40L454.668 42.4382L454.505 132.975L473.857 111.194C481.012 103.067 480.849 93.9647 474.019 91.689V86.8127H512.885V91.689C503.615 93.6396 486.866 108.269 481.987 113.145L502.152 151.668C509.632 166.134 511.421 168.085 518.739 171.011V175.887H472.881V171.011C477.272 166.459 477.922 161.746 474.67 155.081L463.612 132.325L454.505 141.753V151.83C454.505 158.82 458.896 166.947 466.864 171.011V175.887H412.225V171.011C420.356 166.784 424.909 158.82 424.909 151.83V81.4488Z"/>
<path d="M528.46 175.887V171.011C536.103 168.898 543.258 161.746 543.258 146.304V80.9611C543.258 65.5194 536.103 58.3675 528.46 56.2544V51.3781H588.629V56.2544C580.01 59.3428 573.83 65.3569 573.83 80.9611V110.707H615.135V80.9611C615.135 65.5194 607.98 58.3675 600.337 56.2544V51.3781H660.505V56.2544C651.886 59.3428 645.707 65.3569 645.707 80.9611V146.304C645.707 161.908 651.886 167.922 660.505 171.011V175.887H600.337V171.011C607.98 168.898 615.135 161.746 615.135 146.304V117.371H573.83V146.304C573.83 161.908 580.01 167.922 588.629 171.011V175.887H528.46Z"/>
<path d="M672.351 153.456C671.7 126.636 703.085 117.371 726.502 115.746V114.933C726.502 108.106 727.315 90.8763 716.908 90.8763C703.411 90.8763 707.476 117.371 689.263 117.371C682.921 117.371 676.579 112.332 676.741 105.505C677.229 87.3004 704.061 84.212 718.209 84.212C735.934 83.8869 756.098 89.2509 756.098 111.032V151.505C756.098 159.145 760.489 165.484 767.969 165.322V171.011L728.616 175.887L726.34 172.473V165.972C719.835 173.124 709.753 175.887 699.833 175.887C685.197 175.887 672.839 169.548 672.351 153.456ZM703.898 147.767C703.898 156.057 707.964 163.208 715.444 163.208C719.835 163.208 723.412 161.746 726.34 158.982C726.34 146.629 726.502 134.113 726.502 121.76C714.631 125.498 703.898 133.3 703.898 147.767Z"/>
<path d="M783.548 94.6148H772.002V86.8127C783.06 84.8622 801.435 73.4841 809.729 61.7809L813.306 64.2191V86.8127H833.796V94.6148H813.306L813.144 144.678C813.144 155.894 816.884 163.859 825.015 163.534C828.105 163.371 831.845 162.071 836.235 159.307L839 163.696C831.682 174.749 821.763 177.837 810.379 177.837C790.54 177.837 783.548 167.922 783.548 149.23V94.6148Z"/>
</mask>
<path d="M40 171.011C48.6187 168.085 59.1888 161.746 60.6523 143.703L66.0187 80.9611C67.3196 65.5194 58.8636 58.3675 51.2206 56.2544V51.3781H92.5252L122.447 120.459L149.766 51.3781H194.649V56.2544C187.006 58.3675 178.387 65.5194 179.85 80.9611L185.705 146.304C187.006 161.583 192.86 168.898 200.503 171.011V175.887H140.335V171.011C148.953 167.922 156.434 161.908 155.133 146.304L148.628 71.5336L114.966 159.958H109.437L72.5234 81.9364L67.157 143.703C65.5308 161.746 81.6299 168.085 90.5738 171.011V175.887H40V171.011Z" fill="#310872"/>
<path d="M257.717 178C228.446 178 210.558 162.071 210.558 131.837C210.558 102.579 228.771 84.212 257.717 84.212C286.988 84.212 304.388 102.905 304.388 132.325C304.388 162.071 286.663 178 257.717 178ZM257.717 91.5265C243.57 91.5265 241.618 116.233 241.618 131.675C241.618 146.629 242.919 170.848 257.717 170.848C271.865 170.848 273.328 145.166 273.328 131.675C273.328 116.233 271.702 91.5265 257.717 91.5265Z" fill="#310872"/>
<path d="M364.719 175.887C336.261 175.887 319.674 159.633 319.674 131.025C319.674 100.629 339.513 84.212 368.622 84.212C382.77 84.0495 396.755 88.4382 403.91 98.1908L393.502 122.898L389.437 121.76C389.274 111.519 383.583 89.576 367.321 90.7138C353.173 91.8516 350.246 111.845 350.246 122.41C350.246 140.615 357.564 159.958 378.216 159.958C386.672 159.958 395.616 157.357 401.796 151.343L403.91 155.406C396.104 169.223 380.005 175.887 364.719 175.887Z" fill="#310872"/>
<path d="M424.909 81.4488C424.909 71.371 422.47 57.7173 412.225 56.2544V51.3781C424.584 50.8905 441.333 45.8516 451.09 40L454.668 42.4382L454.505 132.975L473.857 111.194C481.012 103.067 480.849 93.9647 474.019 91.689V86.8127H512.885V91.689C503.615 93.6396 486.866 108.269 481.987 113.145L502.152 151.668C509.632 166.134 511.421 168.085 518.739 171.011V175.887H472.881V171.011C477.272 166.459 477.922 161.746 474.67 155.081L463.612 132.325L454.505 141.753V151.83C454.505 158.82 458.896 166.947 466.864 171.011V175.887H412.225V171.011C420.356 166.784 424.909 158.82 424.909 151.83V81.4488Z" fill="#310872"/>
<path d="M528.46 175.887V171.011C536.103 168.898 543.258 161.746 543.258 146.304V80.9611C543.258 65.5194 536.103 58.3675 528.46 56.2544V51.3781H588.629V56.2544C580.01 59.3428 573.83 65.3569 573.83 80.9611V110.707H615.135V80.9611C615.135 65.5194 607.98 58.3675 600.337 56.2544V51.3781H660.505V56.2544C651.886 59.3428 645.707 65.3569 645.707 80.9611V146.304C645.707 161.908 651.886 167.922 660.505 171.011V175.887H600.337V171.011C607.98 168.898 615.135 161.746 615.135 146.304V117.371H573.83V146.304C573.83 161.908 580.01 167.922 588.629 171.011V175.887H528.46Z" fill="#310872"/>
<path d="M672.351 153.456C671.7 126.636 703.085 117.371 726.502 115.746V114.933C726.502 108.106 727.315 90.8763 716.908 90.8763C703.411 90.8763 707.476 117.371 689.263 117.371C682.921 117.371 676.579 112.332 676.741 105.505C677.229 87.3004 704.061 84.212 718.209 84.212C735.934 83.8869 756.098 89.2509 756.098 111.032V151.505C756.098 159.145 760.489 165.484 767.969 165.322V171.011L728.616 175.887L726.34 172.473V165.972C719.835 173.124 709.753 175.887 699.833 175.887C685.197 175.887 672.839 169.548 672.351 153.456ZM703.898 147.767C703.898 156.057 707.964 163.208 715.444 163.208C719.835 163.208 723.412 161.746 726.34 158.982C726.34 146.629 726.502 134.113 726.502 121.76C714.631 125.498 703.898 133.3 703.898 147.767Z" fill="#310872"/>
<path d="M783.548 94.6148H772.002V86.8127C783.06 84.8622 801.435 73.4841 809.729 61.7809L813.306 64.2191V86.8127H833.796V94.6148H813.306L813.144 144.678C813.144 155.894 816.884 163.859 825.015 163.534C828.105 163.371 831.845 162.071 836.235 159.307L839 163.696C831.682 174.749 821.763 177.837 810.379 177.837C790.54 177.837 783.548 167.922 783.548 149.23V94.6148Z" fill="#310872"/>
<path d="M40 171.011C48.6187 168.085 59.1888 161.746 60.6523 143.703L66.0187 80.9611C67.3196 65.5194 58.8636 58.3675 51.2206 56.2544V51.3781H92.5252L122.447 120.459L149.766 51.3781H194.649V56.2544C187.006 58.3675 178.387 65.5194 179.85 80.9611L185.705 146.304C187.006 161.583 192.86 168.898 200.503 171.011V175.887H140.335V171.011C148.953 167.922 156.434 161.908 155.133 146.304L148.628 71.5336L114.966 159.958H109.437L72.5234 81.9364L67.157 143.703C65.5308 161.746 81.6299 168.085 90.5738 171.011V175.887H40V171.011Z" stroke="#310872" stroke-width="3" mask="url(#path-1-outside-1_205_4)"/>
<path d="M257.717 178C228.446 178 210.558 162.071 210.558 131.837C210.558 102.579 228.771 84.212 257.717 84.212C286.988 84.212 304.388 102.905 304.388 132.325C304.388 162.071 286.663 178 257.717 178ZM257.717 91.5265C243.57 91.5265 241.618 116.233 241.618 131.675C241.618 146.629 242.919 170.848 257.717 170.848C271.865 170.848 273.328 145.166 273.328 131.675C273.328 116.233 271.702 91.5265 257.717 91.5265Z" stroke="#310872" stroke-width="3" mask="url(#path-1-outside-1_205_4)"/>
<path d="M364.719 175.887C336.261 175.887 319.674 159.633 319.674 131.025C319.674 100.629 339.513 84.212 368.622 84.212C382.77 84.0495 396.755 88.4382 403.91 98.1908L393.502 122.898L389.437 121.76C389.274 111.519 383.583 89.576 367.321 90.7138C353.173 91.8516 350.246 111.845 350.246 122.41C350.246 140.615 357.564 159.958 378.216 159.958C386.672 159.958 395.616 157.357 401.796 151.343L403.91 155.406C396.104 169.223 380.005 175.887 364.719 175.887Z" stroke="#310872" stroke-width="3" mask="url(#path-1-outside-1_205_4)"/>
<path d="M424.909 81.4488C424.909 71.371 422.47 57.7173 412.225 56.2544V51.3781C424.584 50.8905 441.333 45.8516 451.09 40L454.668 42.4382L454.505 132.975L473.857 111.194C481.012 103.067 480.849 93.9647 474.019 91.689V86.8127H512.885V91.689C503.615 93.6396 486.866 108.269 481.987 113.145L502.152 151.668C509.632 166.134 511.421 168.085 518.739 171.011V175.887H472.881V171.011C477.272 166.459 477.922 161.746 474.67 155.081L463.612 132.325L454.505 141.753V151.83C454.505 158.82 458.896 166.947 466.864 171.011V175.887H412.225V171.011C420.356 166.784 424.909 158.82 424.909 151.83V81.4488Z" stroke="#310872" stroke-width="3" mask="url(#path-1-outside-1_205_4)"/>
<path d="M528.46 175.887V171.011C536.103 168.898 543.258 161.746 543.258 146.304V80.9611C543.258 65.5194 536.103 58.3675 528.46 56.2544V51.3781H588.629V56.2544C580.01 59.3428 573.83 65.3569 573.83 80.9611V110.707H615.135V80.9611C615.135 65.5194 607.98 58.3675 600.337 56.2544V51.3781H660.505V56.2544C651.886 59.3428 645.707 65.3569 645.707 80.9611V146.304C645.707 161.908 651.886 167.922 660.505 171.011V175.887H600.337V171.011C607.98 168.898 615.135 161.746 615.135 146.304V117.371H573.83V146.304C573.83 161.908 580.01 167.922 588.629 171.011V175.887H528.46Z" stroke="#310872" stroke-width="3" mask="url(#path-1-outside-1_205_4)"/>
<path d="M672.351 153.456C671.7 126.636 703.085 117.371 726.502 115.746V114.933C726.502 108.106 727.315 90.8763 716.908 90.8763C703.411 90.8763 707.476 117.371 689.263 117.371C682.921 117.371 676.579 112.332 676.741 105.505C677.229 87.3004 704.061 84.212 718.209 84.212C735.934 83.8869 756.098 89.2509 756.098 111.032V151.505C756.098 159.145 760.489 165.484 767.969 165.322V171.011L728.616 175.887L726.34 172.473V165.972C719.835 173.124 709.753 175.887 699.833 175.887C685.197 175.887 672.839 169.548 672.351 153.456ZM703.898 147.767C703.898 156.057 707.964 163.208 715.444 163.208C719.835 163.208 723.412 161.746 726.34 158.982C726.34 146.629 726.502 134.113 726.502 121.76C714.631 125.498 703.898 133.3 703.898 147.767Z" stroke="#310872" stroke-width="3" mask="url(#path-1-outside-1_205_4)"/>
<path d="M783.548 94.6148H772.002V86.8127C783.06 84.8622 801.435 73.4841 809.729 61.7809L813.306 64.2191V86.8127H833.796V94.6148H813.306L813.144 144.678C813.144 155.894 816.884 163.859 825.015 163.534C828.105 163.371 831.845 162.071 836.235 159.307L839 163.696C831.682 174.749 821.763 177.837 810.379 177.837C790.54 177.837 783.548 167.922 783.548 149.23V94.6148Z" stroke="#310872" stroke-width="3" mask="url(#path-1-outside-1_205_4)"/>
</svg>
